<svg width="89" height="89" viewBox="0 0 89 89" fill="none" xmlns="http://www.w3.org/2000/svg">
<rect width="89" height="89" rx="10" fill="#175CE1"/>
<path d="M64.4908 25.9359C60.1423 21.8674 54.3713 19.2241 47.9738 18.7855C47.6291 18.7612 47.2845 18.7429 46.9336 18.7368H18.7368V70.2631H46.9524C47.2845 70.251 47.6103 70.2388 47.9424 70.2144C54.3525 69.782 60.1297 67.1387 64.4846 63.0641C69.4911 58.3743 72.6052 51.7965 72.6052 44.5C72.6052 37.2096 69.4911 30.6256 64.4908 25.9359ZM35.5672 59.093H28.2172V29.9069H35.5672V59.093ZM46.1316 44.567H38.7816V29.9069H46.1316V44.567ZM56.696 59.093H49.3397V29.9069H56.6897V59.093H56.696Z" fill="white"/>
</svg>
